<svg width="18" height="18" viewBox="0 0 18 18" fill="none" xmlns="http://www.w3.org/2000/svg">
<path d="M2.53018 17.4535H8.16405V11.4902H6.13991V9.52429H8.16405V7.06687C8.16405 5.71184 9.29908 4.60945 10.6942 4.60945H13.2244V6.57539H11.2003C10.6422 6.57539 10.1882 7.01631 10.1882 7.55835V9.52429H13.1331L12.7957 11.4902H10.1882V17.4535H14.7425C16.1377 17.4535 17.2727 16.3512 17.2727 14.9961V3.13501C17.2727 1.77997 16.1377 0.677589 14.7425 0.677589H2.53018C1.13502 0.677589 0 1.77997 0 3.13501V14.9961C0 16.3512 1.13502 17.4535 2.53018 17.4535ZM1.01207 3.13501C1.01207 2.32201 1.69311 1.66056 2.53018 1.66056H14.7425C15.5796 1.66056 16.2606 2.32201 16.2606 3.13501V14.9961C16.2606 15.8091 15.5796 16.4706 14.7425 16.4706H11.2003V12.4732H13.6531L14.3278 8.54132H11.2003V7.55835H14.2365V3.62649H10.6942C8.74099 3.62649 7.15198 5.1698 7.15198 7.06687V8.54132H5.12783V12.4732H7.15198V16.4706H2.53018C1.69311 16.4706 1.01207 15.8091 1.01207 14.9961V3.13501Z" fill="white"/>
</svg>
